<svg width="70" height="31" viewBox="0 0 70 31" fill="none" xmlns="http://www.w3.org/2000/svg">
<g clip-path="url(#clip0_513_37)">
<path fill-rule="evenodd" clip-rule="evenodd" d="M4.19567 15.7616C4.19567 9.81812 9.01379 5 14.9572 5H55.8073C61.7507 5 66.5688 9.81812 66.5688 15.7616C66.5688 21.705 61.7507 26.5231 55.8073 26.5231H14.9572C9.01379 26.5231 4.19567 21.705 4.19567 15.7616ZM105.003 31.4769H-34.2384C-40.1819 31.4769 -45 36.295 -45 42.2384C-45 48.1819 -40.1819 53 -34.2384 53H105.003C110.946 53 115.765 48.1819 115.765 42.2384C115.765 36.295 110.946 31.4769 105.003 31.4769ZM18.1571 13.2326V15.5087V15.51L15.1223 16.7354L18.1571 17.9669V20.2455L12.2365 17.907H12.2243V15.5723H12.2365L18.1571 13.2326ZM52.6497 20.1245V17.8497L55.6821 16.6255L52.6497 15.4013V13.1252L58.5617 15.4624H58.5764V17.7996H58.5617L52.6497 20.1245ZM50.1109 9.90829L46.6338 21.7629H48.6985L52.1756 9.90829H50.1109ZM27.7175 15.3195C27.7542 14.3922 27.4451 13.4881 26.8574 12.8027H26.8586C26.5678 12.4789 26.2148 12.2248 25.8238 12.0574C25.4328 11.89 25.0138 11.8143 24.5923 11.8326C24.1402 11.8118 23.6894 11.89 23.2667 12.0611C22.8439 12.2321 22.4579 12.4936 22.1341 12.8283V12.0794H20.0694V20.369H22.1341V16.6976C22.1341 14.7929 22.7804 13.8412 24.073 13.8412C24.2893 13.8314 24.5055 13.8741 24.7047 13.9658C24.9026 14.0574 25.0798 14.1967 25.2215 14.3714C25.5232 14.7709 25.6772 15.273 25.6527 15.7837V20.369H27.7175V15.3195ZM30.3454 8.63164V20.4863H32.4101V8.63164H30.3454ZM42.354 20.0514H44.0755L46.9722 11.7472H44.7658L43.1396 16.7295L41.4646 11.7472H39.8543L38.1793 16.7136L36.5532 11.7472H34.3467L37.241 20.0514H38.9612L40.6656 15.1681L42.354 20.0514Z" fill="url(#paint0_linear_513_37)"/>
</g>
<defs>
<linearGradient id="paint0_linear_513_37" x1="-7.76157" y1="-0.380782" x2="131.285" y2="84.1744" gradientUnits="userSpaceOnUse">
<stop offset="0.251308" stop-color="#996DFF"/>
<stop offset="0.623787" stop-color="#FF876E"/>
<stop offset="1" stop-color="#FFD072"/>
</linearGradient>
<clipPath id="clip0_513_37">
<rect width="70" height="31" fill="white"/>
</clipPath>
</defs>
</svg>
